<svg width="57" height="53" viewBox="0 0 57 53" fill="none" xmlns="http://www.w3.org/2000/svg">
<rect x="0.73877" y="0.738708" width="55.6391" height="52.1616" rx="10.4323" fill="white"/>
<path d="M30.8376 38.9163V32.8777H30.7042C30.5708 33.1197 30.3782 33.3963 30.1263 33.7075C29.8793 34.0187 29.5385 34.2904 29.1038 34.5225C28.6691 34.7547 28.106 34.8708 27.4144 34.8708C26.4957 34.8708 25.6757 34.6361 24.9546 34.1669C24.2383 33.6927 23.6752 33.0184 23.2652 32.1441C22.8602 31.2649 22.6577 30.2103 22.6577 28.9804C22.6577 27.7504 22.8627 26.6983 23.2726 25.824C23.6876 24.9497 24.2556 24.2804 24.9768 23.8161C25.698 23.3517 26.5155 23.1196 27.4293 23.1196C28.1356 23.1196 28.7037 23.2381 29.1334 23.4752C29.5681 23.7074 29.904 23.9791 30.1411 24.2902C30.3831 24.6014 30.5708 24.8756 30.7042 25.1127H30.8894V23.2678H33.0529V38.9163H30.8376ZM27.9035 32.9814C28.5407 32.9814 29.0791 32.8134 29.5187 32.4776C29.9633 32.1367 30.2991 31.665 30.5264 31.0624C30.7585 30.4597 30.8746 29.7583 30.8746 28.9581C30.8746 28.1678 30.761 27.4763 30.5338 26.8835C30.3066 26.2908 29.9731 25.8289 29.5335 25.498C29.0939 25.167 28.5505 25.0015 27.9035 25.0015C27.2366 25.0015 26.6809 25.1744 26.2364 25.5202C25.7918 25.866 25.4559 26.3377 25.2287 26.9354C25.0064 27.5331 24.8953 28.2073 24.8953 28.9581C24.8953 29.7188 25.0089 30.4029 25.2361 31.0105C25.4633 31.6181 25.7992 32.0997 26.2438 32.4553C26.6933 32.806 27.2465 32.9814 27.9035 32.9814Z" fill="#010313"/>
</svg>
